<svg width="144" height="45" viewBox="0 0 144 45" fill="none" xmlns="http://www.w3.org/2000/svg">
<path d="M19.7355 35.4711C28.426 35.4711 35.4711 28.426 35.4711 19.7355C35.4711 11.045 28.426 4 19.7355 4C11.045 4 4 11.045 4 19.7355C4 28.426 11.045 35.4711 19.7355 35.4711Z" stroke="#0041E8" stroke-width="8" stroke-miterlimit="10"/>
<path d="M42.2095 37.0195H34.2288V45.0002H42.2095V37.0195Z" fill="#0041E8"/>
<path d="M67.3837 14.646C67.479 14.7413 67.557 14.8453 67.6177 14.958C67.687 15.0707 67.7217 15.2137 67.7217 15.387V35.095C67.7217 35.2423 67.687 35.3723 67.6177 35.485C67.5483 35.6063 67.4617 35.706 67.3577 35.784C67.2537 35.862 67.141 35.9227 67.0197 35.966C66.8983 36.0093 66.7857 36.031 66.6817 36.031H63.7047C63.3667 36.031 63.1197 35.94 62.9637 35.758C62.8163 35.576 62.7427 35.355 62.7427 35.095V29.076C62.5087 29.336 62.2487 29.596 61.9627 29.856C61.6853 30.116 61.3777 30.3543 61.0397 30.571C60.7017 30.7877 60.3333 30.961 59.9347 31.091C59.536 31.2297 59.107 31.299 58.6477 31.299C57.4603 31.299 56.364 31.078 55.3587 30.636C54.362 30.194 53.4997 29.5917 52.7717 28.829C52.0523 28.0577 51.489 27.152 51.0817 26.112C50.6743 25.072 50.4707 23.954 50.4707 22.758C50.4707 21.5533 50.6743 20.4353 51.0817 19.404C51.489 18.364 52.0523 17.4627 52.7717 16.7C53.4997 15.9287 54.362 15.3263 55.3587 14.893C56.364 14.451 57.4603 14.23 58.6477 14.23C59.1677 14.23 59.6487 14.3167 60.0907 14.49C60.5413 14.6633 60.953 14.8843 61.3257 15.153C61.707 15.413 62.0493 15.7077 62.3527 16.037C62.6647 16.3577 62.942 16.674 63.1847 16.986L63.7437 15.413C63.813 15.1357 63.9127 14.9017 64.0427 14.711C64.1727 14.5203 64.3937 14.425 64.7057 14.425H66.6817C66.7943 14.425 66.9113 14.438 67.0327 14.464C67.154 14.49 67.271 14.5507 67.3837 14.646ZM55.2157 22.758C55.2157 23.33 55.3067 23.8673 55.4887 24.37C55.6793 24.8727 55.9393 25.3103 56.2687 25.683C56.598 26.047 56.9923 26.3373 57.4517 26.554C57.9197 26.7707 58.431 26.879 58.9857 26.879C59.549 26.879 60.082 26.7707 60.5847 26.554C61.0873 26.3373 61.525 26.047 61.8977 25.683C62.2703 25.3103 62.565 24.8727 62.7817 24.37C62.9983 23.8673 63.1067 23.33 63.1067 22.758V22.563C63.0807 22.0257 62.9507 21.5187 62.7167 21.042C62.4913 20.5653 62.1923 20.1537 61.8197 19.807C61.447 19.4517 61.018 19.1743 60.5327 18.975C60.0473 18.767 59.5317 18.663 58.9857 18.663C58.431 18.663 57.9197 18.7713 57.4517 18.988C56.9923 19.2047 56.598 19.4993 56.2687 19.872C55.9393 20.2447 55.6793 20.6823 55.4887 21.185C55.3067 21.679 55.2157 22.2033 55.2157 22.758ZM71.1841 14.646C71.2968 14.5507 71.4138 14.49 71.5351 14.464C71.6565 14.438 71.7735 14.425 71.8861 14.425H73.8491C74.0138 14.425 74.1481 14.451 74.2521 14.503C74.3648 14.555 74.4558 14.6287 74.5251 14.724C74.5945 14.8107 74.6508 14.9147 74.6941 15.036C74.7461 15.1487 74.7938 15.2743 74.8371 15.413L75.3831 16.986C75.6258 16.674 75.8685 16.3577 76.1111 16.037C76.3625 15.7077 76.6571 15.413 76.9951 15.153C77.3331 14.8843 77.7361 14.6633 78.2041 14.49C78.6721 14.3167 79.2441 14.23 79.9201 14.23C81.1075 14.23 82.1995 14.451 83.1961 14.893C84.2015 15.3263 85.0638 15.9287 85.7831 16.7C86.5111 17.4627 87.0788 18.364 87.4861 19.404C87.8935 20.4353 88.0971 21.5533 88.0971 22.758C88.0971 23.954 87.8935 25.072 87.4861 26.112C87.0788 27.152 86.5111 28.0577 85.7831 28.829C85.0638 29.5917 84.2015 30.194 83.1961 30.636C82.1995 31.078 81.1075 31.299 79.9201 31.299C79.3568 31.299 78.8715 31.2297 78.4641 31.091C78.0568 30.961 77.6928 30.7877 77.3721 30.571C77.0601 30.3543 76.7828 30.116 76.5401 29.856C76.2975 29.596 76.0591 29.336 75.8251 29.076V35.134C75.8251 35.394 75.7471 35.615 75.5911 35.797C75.4351 35.979 75.1925 36.07 74.8631 36.07H71.8861C71.7821 36.07 71.6695 36.0483 71.5481 36.005C71.4268 35.9617 71.3141 35.901 71.2101 35.823C71.1061 35.745 71.0195 35.6453 70.9501 35.524C70.8808 35.4113 70.8461 35.2813 70.8461 35.134V15.387C70.8461 15.2137 70.8765 15.0707 70.9371 14.958C71.0065 14.8453 71.0888 14.7413 71.1841 14.646ZM83.3261 22.758C83.3261 22.2033 83.2351 21.679 83.0531 21.185C82.8711 20.6823 82.6155 20.2447 82.2861 19.872C81.9568 19.4993 81.5625 19.2047 81.1031 18.988C80.6438 18.7713 80.1368 18.663 79.5821 18.663C79.0361 18.663 78.5161 18.767 78.0221 18.975C77.5368 19.1743 77.1078 19.4517 76.7351 19.807C76.3711 20.1537 76.0721 20.5653 75.8381 21.042C75.6128 21.5187 75.4871 22.0257 75.4611 22.563V22.758C75.4611 23.33 75.5695 23.8673 75.7861 24.37C76.0028 24.8727 76.2975 25.3103 76.6701 25.683C77.0428 26.047 77.4805 26.3373 77.9831 26.554C78.4858 26.7707 79.0188 26.879 79.5821 26.879C80.1368 26.879 80.6438 26.7707 81.1031 26.554C81.5625 26.3373 81.9568 26.047 82.2861 25.683C82.6155 25.3103 82.8711 24.8727 83.0531 24.37C83.2351 23.8673 83.3261 23.33 83.3261 22.758ZM107.693 30.038C107.693 30.1853 107.667 30.3283 107.615 30.467C107.563 30.597 107.476 30.701 107.355 30.779C107.259 30.8743 107.147 30.935 107.017 30.961C106.887 30.987 106.774 31 106.679 31H104.118C103.936 31 103.788 30.9783 103.676 30.935C103.563 30.883 103.472 30.8137 103.403 30.727C103.333 30.6403 103.273 30.5363 103.221 30.415C103.177 30.285 103.13 30.1463 103.078 29.999L102.701 29.024C102.467 29.258 102.211 29.5093 101.934 29.778C101.656 30.038 101.349 30.2807 101.011 30.506C100.681 30.7313 100.322 30.9177 99.9316 31.065C99.5416 31.221 99.1256 31.299 98.6836 31.299C97.8949 31.299 97.1366 31.1993 96.4086 31C95.6893 30.8007 95.0133 30.519 94.3806 30.155C93.7566 29.7823 93.1889 29.3403 92.6776 28.829C92.1663 28.309 91.7243 27.7327 91.3516 27.1C90.9876 26.4673 90.7059 25.787 90.5066 25.059C90.3073 24.3223 90.2076 23.5553 90.2076 22.758C90.2076 21.5533 90.4286 20.4353 90.8706 19.404C91.3126 18.364 91.9149 17.4627 92.6776 16.7C93.4403 15.9287 94.3373 15.3263 95.3686 14.893C96.3999 14.451 97.5049 14.23 98.6836 14.23C99.2209 14.23 99.7149 14.3123 100.166 14.477C100.616 14.633 101.024 14.841 101.388 15.101C101.76 15.361 102.094 15.6557 102.389 15.985C102.692 16.3143 102.961 16.648 103.195 16.986L103.702 15.413C103.788 15.1963 103.858 15.023 103.91 14.893C103.97 14.7543 104.031 14.6547 104.092 14.594C104.161 14.5247 104.243 14.4813 104.339 14.464C104.434 14.438 104.568 14.425 104.742 14.425H106.679C106.774 14.425 106.887 14.438 107.017 14.464C107.147 14.49 107.259 14.5507 107.355 14.646C107.476 14.7413 107.563 14.8497 107.615 14.971C107.667 15.0923 107.693 15.231 107.693 15.387V30.038ZM94.8876 22.758C94.8876 23.33 94.9743 23.8673 95.1476 24.37C95.3296 24.864 95.5853 25.293 95.9146 25.657C96.2439 26.021 96.6383 26.3113 97.0976 26.528C97.5656 26.736 98.0813 26.84 98.6446 26.84C99.2253 26.84 99.7626 26.736 100.257 26.528C100.759 26.3113 101.193 26.021 101.557 25.657C101.929 25.293 102.22 24.864 102.428 24.37C102.636 23.8673 102.74 23.33 102.74 22.758C102.74 22.2033 102.636 21.6747 102.428 21.172C102.22 20.6693 101.929 20.2273 101.557 19.846C101.193 19.4647 100.759 19.1657 100.257 18.949C99.7626 18.7237 99.2253 18.611 98.6446 18.611C98.0813 18.611 97.5656 18.7237 97.0976 18.949C96.6383 19.1657 96.2439 19.4647 95.9146 19.846C95.5853 20.2273 95.3296 20.6693 95.1476 21.172C94.9743 21.6747 94.8876 22.2033 94.8876 22.758ZM111.149 14.711C111.262 14.6157 111.379 14.555 111.5 14.529C111.63 14.503 111.751 14.49 111.864 14.49H113.827C113.983 14.49 114.117 14.5203 114.23 14.581C114.343 14.633 114.438 14.7067 114.516 14.802C114.594 14.8973 114.655 15.0057 114.698 15.127C114.75 15.2483 114.798 15.374 114.841 15.504L115.244 17.168C115.374 16.8993 115.56 16.596 115.803 16.258C116.054 15.9113 116.371 15.5907 116.752 15.296C117.133 14.9927 117.584 14.7413 118.104 14.542C118.633 14.334 119.244 14.23 119.937 14.23C120.925 14.23 121.822 14.4207 122.628 14.802C123.434 15.1833 124.119 15.7033 124.682 16.362C125.254 17.0207 125.696 17.792 126.008 18.676C126.32 19.5513 126.476 20.4873 126.476 21.484V29.999C126.476 30.3283 126.402 30.5797 126.255 30.753C126.116 30.9177 125.891 31 125.579 31H122.576C122.203 31 121.948 30.9393 121.809 30.818C121.67 30.688 121.601 30.441 121.601 30.077V21.614C121.601 21.2413 121.514 20.8903 121.341 20.561C121.176 20.223 120.955 19.9283 120.678 19.677C120.401 19.417 120.084 19.2133 119.729 19.066C119.382 18.9187 119.027 18.845 118.663 18.845C118.351 18.845 118.03 18.9143 117.701 19.053C117.38 19.1917 117.081 19.3867 116.804 19.638C116.535 19.8807 116.306 20.171 116.115 20.509C115.933 20.8383 115.829 21.198 115.803 21.588V30.038C115.803 30.1853 115.773 30.3327 115.712 30.48C115.66 30.6273 115.578 30.74 115.465 30.818C115.352 30.8873 115.244 30.935 115.14 30.961C115.045 30.987 114.932 31 114.802 31H111.864C111.491 31 111.223 30.909 111.058 30.727C110.893 30.545 110.811 30.3023 110.811 29.999V15.452C110.811 15.2873 110.846 15.1357 110.915 14.997C110.993 14.8583 111.097 14.75 111.227 14.672L111.149 14.711ZM132.07 25.865C132.304 26.099 132.555 26.2983 132.824 26.463C133.101 26.619 133.366 26.749 133.617 26.853C133.868 26.9483 134.089 27.0177 134.28 27.061C134.471 27.1043 134.601 27.126 134.67 27.126C134.835 27.126 135.043 27.1217 135.294 27.113C135.554 27.0957 135.801 27.0567 136.035 26.996C136.269 26.9267 136.468 26.8183 136.633 26.671C136.806 26.5237 136.893 26.3157 136.893 26.047C136.893 25.8043 136.845 25.6137 136.75 25.475C136.655 25.3277 136.516 25.2063 136.334 25.111C136.152 25.007 135.927 24.916 135.658 24.838C135.398 24.76 135.103 24.669 134.774 24.565C133.734 24.2877 132.876 23.954 132.2 23.564C131.524 23.174 130.987 22.7407 130.588 22.264C130.198 21.7787 129.925 21.2587 129.769 20.704C129.613 20.1493 129.535 19.5643 129.535 18.949C129.535 18.2297 129.678 17.5753 129.964 16.986C130.25 16.3967 130.657 15.894 131.186 15.478C131.715 15.0533 132.347 14.7283 133.084 14.503C133.821 14.269 134.64 14.152 135.541 14.152C136.087 14.152 136.598 14.1997 137.075 14.295C137.552 14.3817 138.007 14.5247 138.44 14.724C138.873 14.9147 139.294 15.166 139.701 15.478C140.117 15.7813 140.529 16.1453 140.936 16.57C141.083 16.7433 141.157 16.908 141.157 17.064C141.166 17.2113 141.07 17.3717 140.871 17.545C140.533 17.8223 140.208 18.0953 139.896 18.364C139.593 18.6327 139.276 18.9317 138.947 19.261C138.843 19.3477 138.739 19.404 138.635 19.43C138.531 19.4473 138.431 19.443 138.336 19.417C138.241 19.391 138.15 19.3477 138.063 19.287C137.976 19.2263 137.898 19.1527 137.829 19.066C137.526 18.728 137.179 18.5027 136.789 18.39C136.399 18.2687 136.035 18.208 135.697 18.208C135.272 18.208 134.934 18.2817 134.683 18.429C134.432 18.5763 134.315 18.8017 134.332 19.105C134.349 19.3303 134.432 19.508 134.579 19.638C134.735 19.7593 134.921 19.859 135.138 19.937C135.363 20.015 135.597 20.08 135.84 20.132C136.091 20.1753 136.321 20.2273 136.529 20.288C137.309 20.5393 138.024 20.8123 138.674 21.107C139.324 21.4017 139.887 21.7657 140.364 22.199C140.841 22.6237 141.209 23.135 141.469 23.733C141.738 24.331 141.872 25.059 141.872 25.917C141.872 26.775 141.699 27.542 141.352 28.218C141.014 28.894 140.546 29.4617 139.948 29.921C139.35 30.3803 138.639 30.7313 137.816 30.974C137.001 31.2167 136.122 31.338 135.177 31.338C134.64 31.338 134.094 31.2903 133.539 31.195C132.984 31.0997 132.447 30.948 131.927 30.74C131.407 30.5233 130.913 30.2503 130.445 29.921C129.977 29.583 129.561 29.1757 129.197 28.699C129.102 28.5777 129.028 28.452 128.976 28.322C128.933 28.1833 128.911 28.049 128.911 27.919C128.92 27.789 128.946 27.672 128.989 27.568C129.041 27.4553 129.119 27.36 129.223 27.282L130.9 25.605C131.108 25.4317 131.29 25.371 131.446 25.423C131.611 25.475 131.819 25.6223 132.07 25.865Z" fill="black"/>
</svg>
