<svg width="89" height="89" viewBox="0 0 89 89" fill="none" xmlns="http://www.w3.org/2000/svg">
<g filter="url(#filter0_d_1_45)">
<rect x="20.5" y="4.5" width="48" height="48" rx="24" fill="white"/>
<path d="M56 21.625V35.375C56 36.1553 55.4053 36.75 54.625 36.75H53.25V24.2712L45 30.1974L36.75 24.2712V36.75H35.375C34.5947 36.75 34 36.1553 34 35.375V21.625C34 21.2345 34.1471 20.8907 34.3939 20.6474C34.5225 20.5188 34.6756 20.4173 34.8441 20.349C35.0126 20.2808 35.1932 20.2471 35.375 20.25H35.8336L45 26.8961L54.1664 20.25H54.625C55.0155 20.25 55.3592 20.3971 55.6061 20.6474C55.8529 20.8907 56 21.2345 56 21.625Z" fill="#464646"/>
</g>
<defs>
<filter id="filter0_d_1_45" x="0.5" y="0.5" width="88" height="88" filterUnits="userSpaceOnUse" color-interpolation-filters="sRGB">
<feFlood flood-opacity="0" result="BackgroundImageFix"/>
<feColorMatrix in="SourceAlpha" type="matrix" values="0 0 0 0 0 0 0 0 0 0 0 0 0 0 0 0 0 0 127 0" result="hardAlpha"/>
<feMorphology radius="10" operator="erode" in="SourceAlpha" result="effect1_dropShadow_1_45"/>
<feOffset dy="16"/>
<feGaussianBlur stdDeviation="15"/>
<feComposite in2="hardAlpha" operator="out"/>
<feColorMatrix type="matrix" values="0 0 0 0 0 0 0 0 0 0 0 0 0 0 0 0 0 0 0.08 0"/>
<feBlend mode="normal" in2="BackgroundImageFix" result="effect1_dropShadow_1_45"/>
<feBlend mode="normal" in="SourceGraphic" in2="effect1_dropShadow_1_45" result="shape"/>
</filter>
</defs>
</svg>
