<svg width="89" height="89" viewBox="0 0 89 89" fill="none" xmlns="http://www.w3.org/2000/svg">
<g filter="url(#filter0_d_1_55)">
<rect x="20.5" y="4.5" width="48" height="48" rx="24" fill="white"/>
<g clip-path="url(#clip0_1_55)">
<path d="M33 20.1136C33 19.356 33.2675 18.731 33.8024 18.2386C34.3373 17.7462 35.0327 17.5 35.8885 17.5C36.7291 17.5 37.4092 17.7424 37.9288 18.2273C38.4637 18.7273 38.7312 19.3788 38.7312 20.1818C38.7312 20.9091 38.4714 21.5151 37.9517 22C37.4168 22.5 36.7138 22.75 35.8427 22.75H35.8197C34.9792 22.75 34.2991 22.5 33.7794 22C33.2598 21.5 33 20.8712 33 20.1136ZM33.298 40V24.8182H38.3873V40H33.298ZM41.207 40H46.2963V31.5227C46.2963 30.9924 46.3575 30.5833 46.4797 30.2954C46.6937 29.7803 47.0185 29.3447 47.454 28.9886C47.8896 28.6326 48.436 28.4545 49.0931 28.4545C50.8049 28.4545 51.6607 29.5985 51.6607 31.8863V40H56.75V31.2954C56.75 29.053 56.2151 27.3523 55.1453 26.1932C54.0754 25.0341 52.6618 24.4545 50.9042 24.4545C48.9327 24.4545 47.3967 25.2954 46.2963 26.9773V27.0227H46.2734L46.2963 26.9773V24.8182H41.207C41.2376 25.303 41.2529 26.8106 41.2529 29.3409C41.2529 31.8712 41.2376 35.4242 41.207 40Z" fill="#464646"/>
</g>
</g>
<defs>
<filter id="filter0_d_1_55" x="0.5" y="0.5" width="88" height="88" filterUnits="userSpaceOnUse" color-interpolation-filters="sRGB">
<feFlood flood-opacity="0" result="BackgroundImageFix"/>
<feColorMatrix in="SourceAlpha" type="matrix" values="0 0 0 0 0 0 0 0 0 0 0 0 0 0 0 0 0 0 127 0" result="hardAlpha"/>
<feMorphology radius="10" operator="erode" in="SourceAlpha" result="effect1_dropShadow_1_55"/>
<feOffset dy="16"/>
<feGaussianBlur stdDeviation="15"/>
<feComposite in2="hardAlpha" operator="out"/>
<feColorMatrix type="matrix" values="0 0 0 0 0 0 0 0 0 0 0 0 0 0 0 0 0 0 0.08 0"/>
<feBlend mode="normal" in2="BackgroundImageFix" result="effect1_dropShadow_1_55"/>
<feBlend mode="normal" in="SourceGraphic" in2="effect1_dropShadow_1_55" result="shape"/>
</filter>
<clipPath id="clip0_1_55">
<rect width="23.75" height="22.5" fill="white" transform="translate(33 17.5)"/>
</clipPath>
</defs>
</svg>
